<?xml version="1.0" encoding="UTF-8" standalone="no"?><!DOCTYPE svg PUBLIC "-//W3C//DTD SVG 1.1//EN" "http://www.w3.org/Graphics/SVG/1.1/DTD/svg11.dtd"><svg width="100%" height="100%" viewBox="0 0 24 24" version="1.1" xmlns="http://www.w3.org/2000/svg" xmlns:xlink="http://www.w3.org/1999/xlink" xml:space="preserve" style="fill-rule:evenodd;clip-rule:evenodd;stroke-linecap:round;stroke-linejoin:round;stroke-miterlimit:1.5;"><path d="M5.5,3.75c0,-0.414 -0.336,-0.75 -0.75,-0.75l-1,0c-0.414,0 -0.75,0.336 -0.75,0.75c0,0.414 0.336,0.75 0.75,0.75l1,0c0.414,0 0.75,-0.336 0.75,-0.75Z" style="fill:#fff;stroke:#fff;stroke-width:1.5px;"/><path d="M14,4.5c0,-0.414 -0.336,-0.75 -0.75,-0.75l-3,0c-0.414,0 -0.75,0.336 -0.75,0.75c0,0.414 0.336,0.75 0.75,0.75l3,0c0.414,0 0.75,-0.336 0.75,-0.75Z" style="fill:#fff;stroke:#fff;stroke-width:1.5px;"/><path d="M21.5,3.5c0,-0.414 -0.336,-0.75 -0.75,-0.75l-2,0c-0.414,0 -0.75,0.336 -0.75,0.75c0,0.414 0.336,0.75 0.75,0.75l2,0c0.414,0 0.75,-0.336 0.75,-0.75Z" style="fill:#fff;stroke:#fff;stroke-width:1.5px;"/><path d="M6.75,8.75c0,-0.414 -0.336,-0.75 -0.75,-0.75l-2,0c-0.414,0 -0.75,0.336 -0.75,0.75c0,0.414 0.336,0.75 0.75,0.75l2,0c0.414,0 0.75,-0.336 0.75,-0.75Z" style="fill:#fff;stroke:#fff;stroke-width:1.5px;"/><path d="M15.375,10.5c0,-0.414 -0.336,-0.75 -0.75,-0.75l-3,0c-0.414,0 -0.75,0.336 -0.75,0.75c0,0.414 0.336,0.75 0.75,0.75l3,0c0.414,0 0.75,-0.336 0.75,-0.75Z" style="fill:#fff;stroke:#fff;stroke-width:1.5px;"/><path d="M20.5,7.75c0,-0.414 -0.336,-0.75 -0.75,-0.75l-1,0c-0.414,0 -0.75,0.336 -0.75,0.75c0,0.414 0.336,0.75 0.75,0.75l1,0c0.414,0 0.75,-0.336 0.75,-0.75Z" style="fill:#fff;stroke:#fff;stroke-width:1.5px;"/><path d="M8.25,14.25c0,-0.414 -0.336,-0.75 -0.75,-0.75l-2,0c-0.414,0 -0.75,0.336 -0.75,0.75c0,0.414 0.336,0.75 0.75,0.75l2,0c0.414,0 0.75,-0.336 0.75,-0.75Z" style="fill:#fff;stroke:#fff;stroke-width:1.5px;"/><path d="M22,12.75c0,-0.414 -0.336,-0.75 -0.75,-0.75l-2,0c-0.414,0 -0.75,0.336 -0.75,0.75c0,0.414 0.336,0.75 0.75,0.75l2,0c0.414,0 0.75,-0.336 0.75,-0.75Z" style="fill:#fff;stroke:#fff;stroke-width:1.5px;"/><path d="M9.5,20.25c0,-0.414 -0.336,-0.75 -0.75,-0.75l-1.5,0c-0.414,0 -0.75,0.336 -0.75,0.75c0,0.414 0.336,0.75 0.75,0.75l1.5,0c0.414,0 0.75,-0.336 0.75,-0.75Z" style="fill:#fff;stroke:#fff;stroke-width:1.5px;"/><path d="M15.875,16.25c0,-0.414 -0.336,-0.75 -0.75,-0.75l-2.25,0c-0.414,0 -0.75,0.336 -0.75,0.75c0,0.414 0.336,0.75 0.75,0.75l2.25,0c0.414,0 0.75,-0.336 0.75,-0.75Z" style="fill:#fff;stroke:#fff;stroke-width:1.5px;"/><path d="M20.25,20.75c0,-0.414 -0.336,-0.75 -0.75,-0.75l-3,0c-0.414,0 -0.75,0.336 -0.75,0.75c0,0.414 0.336,0.75 0.75,0.75l3,0c0.414,0 0.75,-0.336 0.75,-0.75Z" style="fill:#fff;stroke:#fff;stroke-width:1.5px;"/></svg>