<svg id="Ebene_1" data-name="Ebene 1" xmlns="http://www.w3.org/2000/svg" viewBox="0 0 56.69 56.69"><defs></defs><title>picto</title><path class="cls-1" d="M19.58,27a9.84,9.84,0,0,0,.72,1.65c.18.3.46.7.82,1.22A7.17,7.17,0,0,1,21.84,31a3,3,0,0,1,.33,1.33,3.11,3.11,0,0,1-3.09,3.08A3.11,3.11,0,0,1,16,32.32,2.86,2.86,0,0,1,16.33,31,6.93,6.93,0,0,1,17,29.84c.37-.52.65-.92.83-1.22A11.8,11.8,0,0,0,18.59,27a.51.51,0,0,1,1,0Zm5.73-10.59A11.8,11.8,0,0,0,26,18c.18.3.46.7.83,1.22a6.53,6.53,0,0,1,.71,1.16,2.82,2.82,0,0,1,.34,1.32,3.08,3.08,0,0,1-5.27,2.18,3,3,0,0,1-.91-2.18,2.93,2.93,0,0,1,.33-1.32,6.74,6.74,0,0,1,.72-1.16c.36-.52.64-.92.82-1.22a9.84,9.84,0,0,0,.72-1.65.51.51,0,0,1,1,0Zm9.05,5.13a1.09,1.09,0,0,1,.44.61,15.87,15.87,0,0,0,1.65,3.63,31.8,31.8,0,0,0,1.85,2.73A19.44,19.44,0,0,1,40,31.05,6.43,6.43,0,0,1,40.7,34a6.29,6.29,0,0,1-.94,3.36,6.88,6.88,0,0,1-2.56,2.46,7.42,7.42,0,0,1-7.12,0,6.88,6.88,0,0,1-2.56-2.46A6.29,6.29,0,0,1,26.58,34a6.43,6.43,0,0,1,.72-2.92A18.9,18.9,0,0,1,29,28.46c.84-1.14,1.47-2,1.87-2.71a19.47,19.47,0,0,0,1.6-3.63,1.09,1.09,0,0,1,.44-.61,1.29,1.29,0,0,1,1.44,0ZM31.16,30a16.53,16.53,0,0,0-1.43,2.15,3.5,3.5,0,0,0-.5,1.77,3.86,3.86,0,0,0,1.29,2.92,4.63,4.63,0,0,0,6.24,0,3.86,3.86,0,0,0,1.29-2.92,3.59,3.59,0,0,0-.49-1.77A18.12,18.12,0,0,0,36.12,30a34.19,34.19,0,0,1-2.48-3.8A34.19,34.19,0,0,1,31.16,30Z"/></svg>