<svg id="Ebene_1" data-name="Ebene 1" xmlns="http://www.w3.org/2000/svg" viewBox="0 0 56.69 56.69"><defs></defs><title>picto</title><path class="cls-1" d="M42.49,25.75a6.79,6.79,0,0,1,2.56,2.57,7.19,7.19,0,0,1,0,7.11A6.79,6.79,0,0,1,42.49,38a7.26,7.26,0,0,1-7.11,0,6.89,6.89,0,0,1-2.57-2.57,7,7,0,0,1-.93-3.55,7,7,0,0,1,2.7-5.57l-.66-1.11A8.66,8.66,0,0,0,31,28.46a8.27,8.27,0,0,0-.91,4.24,1,1,0,0,1-.27.83,1.15,1.15,0,0,1-.83.33H24.54A7,7,0,0,1,22,37.5a6.75,6.75,0,0,1-4.24,1.43A7.06,7.06,0,0,1,14.2,38a7,7,0,0,1-3.5-6.12,6.94,6.94,0,0,1,.94-3.56,6.86,6.86,0,0,1,2.56-2.57A7.13,7.13,0,0,1,20,25.2l.44-.82a3.55,3.55,0,0,0-2.7-1.11H14.67a1.1,1.1,0,0,1,0-2.2h3.09a7.33,7.33,0,0,1,4.3,1.1,3.71,3.71,0,0,1,.72.66h9.7L30.83,20H27.24a.64.64,0,0,1-.47-.19.67.67,0,0,1-.19-.47v-.88a.68.68,0,0,1,.19-.47.64.64,0,0,1,.47-.19h4.19a1,1,0,0,1,.94.55l1.38,2.26L35.9,18.2a1.28,1.28,0,0,1,1-.44h2.49a1.31,1.31,0,0,1,1.32,1.32v1.77a1.33,1.33,0,0,1-1.32,1.32H34.69l1.82,3.09a6.61,6.61,0,0,1,2.42-.44A7,7,0,0,1,42.49,25.75ZM20.41,35.93a4.7,4.7,0,0,0,1.76-2.07H17.1a1,1,0,0,1-.94-.55,1.09,1.09,0,0,1-.06-1.1l2.82-5A4.07,4.07,0,0,0,17.76,27a4.9,4.9,0,0,0-4.85,4.86,4.62,4.62,0,0,0,1.43,3.41,4.67,4.67,0,0,0,3.42,1.44A4.76,4.76,0,0,0,20.41,35.93Zm8.32-7.8a10.55,10.55,0,0,1,2-3.09H22.61L19,31.66h8.94A10.56,10.56,0,0,1,28.73,28.13Zm13.62,7.16A4.86,4.86,0,0,0,38.93,27a5.43,5.43,0,0,0-1.32.17l2.92,5a.55.55,0,0,1,.09.5.6.6,0,0,1-.31.38l-.77.44a.53.53,0,0,1-.5.09.6.6,0,0,1-.38-.31l-3-5a5.85,5.85,0,0,0-1.16,1.65,4.7,4.7,0,0,0-.44,2,4.83,4.83,0,0,0,8.27,3.41Z"/></svg>