<svg id="Ebene_1" data-name="Ebene 1" xmlns="http://www.w3.org/2000/svg" viewBox="0 0 56.69 56.69"><defs></defs><title>picto</title><path class="cls-1" d="M40.15,30.91A7.15,7.15,0,0,1,41,39.15a6.86,6.86,0,0,1-2.56,2.57,7,7,0,0,1-3.56.93H34.8a6.75,6.75,0,0,1-3.5-1,7,7,0,0,1-3.5-6.15,6.73,6.73,0,0,1,1.76-4.63V19.71a5.3,5.3,0,0,1,9-3.75,5.11,5.11,0,0,1,1.55,3.75Zm-.44,4.69a4.8,4.8,0,0,0-.56-2.27,7.38,7.38,0,0,0-1-1.37l-.17-.22v-12a3.09,3.09,0,0,0-6.17,0v12L31.6,32a7.07,7.07,0,0,0-1.05,1.37A4.6,4.6,0,0,0,30,35.6,4.68,4.68,0,0,0,31.41,39a4.54,4.54,0,0,0,3.39,1.44h.05a4.92,4.92,0,0,0,4.86-4.85Zm-1.77,0a3.09,3.09,0,0,1-6.17,0,3,3,0,0,1,.49-1.69,3.36,3.36,0,0,1,1.27-1.13V26.33A1.31,1.31,0,0,1,34.85,25a1.31,1.31,0,0,1,.94.38,1.28,1.28,0,0,1,.39.94v6.45a3.43,3.43,0,0,1,1.27,1.13A3,3,0,0,1,37.94,35.6Z"/><path class="cls-1" d="M18.37,25a10.76,10.76,0,0,0,.71,1.66c.19.29.46.7.83,1.21A6.74,6.74,0,0,1,20.63,29,2.93,2.93,0,0,1,21,30.36a3.11,3.11,0,0,1-3.09,3.09,3.11,3.11,0,0,1-3.09-3.09A2.93,2.93,0,0,1,15.11,29a6.74,6.74,0,0,1,.72-1.16c.37-.51.64-.92.83-1.21A10.76,10.76,0,0,0,17.37,25a.52.52,0,0,1,1,0ZM24.1,14.42a9.59,9.59,0,0,0,.72,1.66c.18.29.46.7.82,1.21a7.15,7.15,0,0,1,.72,1.16A3.06,3.06,0,0,1,21.43,22a3,3,0,0,1-.58-3.5,7.67,7.67,0,0,1,.71-1.16c.37-.51.65-.92.83-1.21a10.42,10.42,0,0,0,.72-1.66.51.51,0,0,1,1,0Z"/></svg>