<svg id="Ebene_1" data-name="Ebene 1" xmlns="http://www.w3.org/2000/svg" viewBox="0 0 56.69 56.69"><defs></defs><title>picto</title><path class="cls-1" d="M42.46,19.52a5.1,5.1,0,0,1-1.54,3.75l-4.25,4.25.72.72a1.25,1.25,0,0,1,.39.93,1.28,1.28,0,0,1-.39.94l-3.53,3.53a1.28,1.28,0,0,1-.94.39,1.25,1.25,0,0,1-.93-.39l-.94-.94L24.1,39.65a3.45,3.45,0,0,1-2.54,1.05H19.08L16,42.46,14.23,40.7,16,37.61V35.13a3.47,3.47,0,0,1,1-2.54l7-7-.94-.93a1.35,1.35,0,0,1,0-1.88l3.53-3.53a1.35,1.35,0,0,1,1.88,0l.71.72,4.25-4.25a5.29,5.29,0,0,1,9,3.75ZM29.17,30.83l-3.3-3.31-6.95,7a.87.87,0,0,0-.28.66v2.92h2.92a.94.94,0,0,0,.67-.27ZM39.82,19.52a2.66,2.66,0,0,0-4.53-1.87l-6.12,6.12-1.65-1.65-1.65,1.65,7.05,7.06,1.66-1.66-1.66-1.65,1.88-1.88L39,21.4A2.55,2.55,0,0,0,39.82,19.52Z"/></svg>