<svg id="Ebene_1" data-name="Ebene 1" xmlns="http://www.w3.org/2000/svg" viewBox="0 0 56.69 56.69"><defs></defs><title>picto</title><path class="cls-1" d="M46.4,28.12a.88.88,0,0,1,.26.64v1.08a.94.94,0,0,1-.32.73,1.11,1.11,0,0,1-.76.29,11.16,11.16,0,0,1-5-1.66,11.06,11.06,0,0,1-6.1,1.66,11.06,11.06,0,0,1-6.1-1.66,11.12,11.12,0,0,1-6.11,1.66,11.08,11.08,0,0,1-6.1-1.66,11.16,11.16,0,0,1-5,1.66,1.11,1.11,0,0,1-.76-.29.94.94,0,0,1-.32-.73V28.76a.88.88,0,0,1,.26-.64,1.17,1.17,0,0,1,.7-.31,7.65,7.65,0,0,0,4.19-1.66,1.48,1.48,0,0,1,1-.32,1.44,1.44,0,0,1,.95.32,7.3,7.3,0,0,0,2.35,1.27,8.94,8.94,0,0,0,5.6,0,7.3,7.3,0,0,0,2.35-1.27,1.46,1.46,0,0,1,1-.32,1.44,1.44,0,0,1,.95.32,7.3,7.3,0,0,0,2.35,1.27,8.94,8.94,0,0,0,5.6,0,7.3,7.3,0,0,0,2.35-1.27,1.59,1.59,0,0,1,1.91,0,7.73,7.73,0,0,0,4.26,1.66A1.11,1.11,0,0,1,46.4,28.12Z"/></svg>