<svg id="Ebene_1" data-name="Ebene 1" xmlns="http://www.w3.org/2000/svg" viewBox="0 0 56.69 56.69"><defs></defs><title>picto</title><path class="cls-1" d="M22.23,33.75a2.93,2.93,0,0,1-.5-1.65v-4A3.82,3.82,0,0,1,22.36,26a4.12,4.12,0,0,1,1.69-1.46,5,5,0,0,1-1-3,5.3,5.3,0,0,1,9.05-3.75,5.25,5.25,0,0,1,.55,6.78A4,4,0,0,1,34.33,26,3.82,3.82,0,0,1,35,28.13v4a3,3,0,0,1-.49,1.65,3.2,3.2,0,0,1-1.27,1.16v2.48a3,3,0,0,1-.91,2.18,3,3,0,0,1-2.18.91H26.58a3.11,3.11,0,0,1-3.09-3.09V34.91A3.18,3.18,0,0,1,22.23,33.75Zm2.15-1.65a.41.41,0,0,0,.13.3.46.46,0,0,0,.31.14h1.32v4.85a.42.42,0,0,0,.14.3.39.39,0,0,0,.3.14h3.53a.48.48,0,0,0,.44-.44V32.54h1.33a.48.48,0,0,0,.44-.44v-4A1.33,1.33,0,0,0,31,26.8H25.7a1.31,1.31,0,0,0-1.32,1.33Zm2.09-12.47a2.67,2.67,0,0,0,0,3.75,2.64,2.64,0,0,0,3.75,0,2.67,2.67,0,0,0,0-3.75,2.67,2.67,0,0,0-3.75,0Z"/></svg>