<svg id="Ebene_1" data-name="Ebene 1" xmlns="http://www.w3.org/2000/svg" viewBox="0 0 56.69 56.69"><defs></defs><title>picto</title><path class="cls-1" d="M33.64,30.72A6.93,6.93,0,0,1,35.4,35.4,7,7,0,0,1,34.47,39a6.89,6.89,0,0,1-2.57,2.57,7,7,0,0,1-3.55.93h-.06a6.75,6.75,0,0,1-3.5-1,7.14,7.14,0,0,1-2.56-2.59,7,7,0,0,1-.94-3.56,6.78,6.78,0,0,1,1.76-4.63V19.52a5.28,5.28,0,0,1,5.3-5.29,5.26,5.26,0,0,1,5.29,5.29ZM33.2,35.4a4.78,4.78,0,0,0-.55-2.26,7.07,7.07,0,0,0-1-1.37l-.17-.23v-12a3.08,3.08,0,0,0-5.26-2.17,2.94,2.94,0,0,0-.91,2.17v12l-.17.23a7.38,7.38,0,0,0-1,1.37,4.59,4.59,0,0,0-.56,2.26,4.69,4.69,0,0,0,1.41,3.42,4.57,4.57,0,0,0,3.39,1.44h.06A4.9,4.9,0,0,0,33.2,35.4Zm-1.77,0a3.09,3.09,0,0,1-6.17,0,3,3,0,0,1,.49-1.68A3.43,3.43,0,0,1,27,32.59V26.14a1.28,1.28,0,0,1,.39-.94,1.31,1.31,0,0,1,.94-.38,1.31,1.31,0,0,1,1.32,1.32v6.45a3.36,3.36,0,0,1,1.27,1.13A3,3,0,0,1,31.43,35.4Z"/></svg>