<svg id="Ebene_1" data-name="Ebene 1" xmlns="http://www.w3.org/2000/svg" viewBox="0 0 56.69 56.69"><defs></defs><title>picto</title><path class="cls-1" d="M40.84,26.92A5.95,5.95,0,0,1,41.66,34a6,6,0,0,1-2.17,2.18,5.89,5.89,0,0,1-3,.8H35.18a2.3,2.3,0,0,0-.11-2.21,2.44,2.44,0,0,0-.33-.39v0h1.77a3.16,3.16,0,0,0,2.34-1,3.31,3.31,0,0,0,0-4.68,3.16,3.16,0,0,0-2.34-1H34.63l-.16-1.21a3,3,0,0,0-1-2,2.93,2.93,0,0,0-2-.8,3.18,3.18,0,0,0-1.76.55l-1.16.83-.77-1.21a3.67,3.67,0,0,0-1.41-1.41,3.94,3.94,0,0,0-5.92,3.45l.16,1.6-1.16.27a3.07,3.07,0,0,0-1.82,1.13A3.31,3.31,0,0,0,16.88,31a3.29,3.29,0,0,0,3.31,3.31h1.54L21.4,37H20.19a6,6,0,0,1-2.43-11.42,6.46,6.46,0,0,1,1-3.14,6.59,6.59,0,0,1,2.4-2.26,6.5,6.5,0,0,1,3.2-.83,6.39,6.39,0,0,1,2.7.58,6.51,6.51,0,0,1,2.2,1.63,5.42,5.42,0,0,1,2.15-.45,5.5,5.5,0,0,1,3.37,1.11A5.82,5.82,0,0,1,36.89,25,5.91,5.91,0,0,1,40.84,26.92Z"/><path class="cls-1" d="M30.91,30.16A4.9,4.9,0,0,1,32.74,32a5.09,5.09,0,0,1,0,5.12.41.41,0,0,1-.2.19.54.54,0,0,1-.27.07H24.44a.59.59,0,0,1-.29-.07.41.41,0,0,1-.2-.19A5.09,5.09,0,0,1,24,32a4.9,4.9,0,0,1,1.83-1.84,5.11,5.11,0,0,1,5.13,0Zm1.67,4.4A4.11,4.11,0,0,0,32,32.44a4.32,4.32,0,0,0-1.54-1.55,4.14,4.14,0,0,0-2.12-.57,4.08,4.08,0,0,0-2.12.57,4.27,4.27,0,0,0-1.55,1.55,4.24,4.24,0,0,0-.08,4.1h7.49A4.15,4.15,0,0,0,32.58,34.56Zm-3.3-.07a1.07,1.07,0,0,1,.2.63,1.17,1.17,0,0,1-.16.57H27.37a1.16,1.16,0,0,1-.15-.57,1.07,1.07,0,0,1,.19-.63,1.08,1.08,0,0,1,.51-.41V31.73a.38.38,0,0,1,.13-.3.41.41,0,0,1,.3-.12.44.44,0,0,1,.3.12.41.41,0,0,1,.12.3v2.35A1.08,1.08,0,0,1,29.28,34.49Z"/></svg>