<?xml version="1.0" standalone="no"?>
<!DOCTYPE svg PUBLIC "-//W3C//DTD SVG 20010904//EN"
 "http://www.w3.org/TR/2001/REC-SVG-20010904/DTD/svg10.dtd">
<svg version="1.0" xmlns="http://www.w3.org/2000/svg"
 width="700.000000pt" height="700.000000pt" viewBox="0 0 700.000000 700.000000"
 preserveAspectRatio="xMidYMid meet">
<metadata>
Created by potrace 1.11, written by Peter Selinger 2001-2013
</metadata>
<g transform="translate(0.000000,700.000000) scale(0.100000,-0.100000)"
fill="#000000" stroke="none">
<path d="M616 6984 c-158 -34 -271 -96 -386 -213 -121 -123 -181 -233 -214
-393 -14 -69 -16 -366 -16 -2878 0 -3068 -4 -2865 57 -3018 66 -165 207 -318
366 -396 183 -90 -148 -81 3077 -81 2735 0 2858 1 2919 18 275 78 472 273 557
552 18 57 19 187 22 2890 2 2560 1 2838 -13 2910 -33 162 -93 273 -215 395
-121 121 -232 181 -392 214 -69 14 -365 16 -2885 15 -2439 -1 -2817 -3 -2877
-15z m2629 -3489 l0 -2590 -157 -3 -158 -3 0 2596 0 2596 158 -3 157 -3 0
-2590z m405 365 l0 -2230 -155 0 -155 0 0 2230 0 2230 155 0 155 0 0 -2230z
m410 -365 l0 -2596 -157 3 -158 3 -3 2580 c-1 1419 0 2586 3 2593 3 9 45 12
160 12 l155 0 0 -2595z m-1220 -15 l0 -1850 -160 0 -160 0 0 1850 0 1850 160
0 160 0 0 -1850z m1630 0 l0 -1850 -160 0 -160 0 0 1850 0 1850 160 0 160 0 0
-1850z m-2040 -745 l0 -1835 -155 0 -155 0 0 1835 0 1835 155 0 155 0 0 -1835z
m2440 0 l0 -1835 -155 0 -155 0 0 1835 0 1835 155 0 155 0 0 -1835z"/>
</g>
</svg>
